<svg width="877" height="1054" viewBox="0 0 877 1054" fill="none" xmlns="http://www.w3.org/2000/svg">
<path d="M438.329 336.235L403.765 392.899L200.098 59.0186H105.131L356.28 470.742L321.965 526.998L356.281 583.255L105.131 994.98H200.098L403.766 661.098L438.33 717.761L233.228 1054H0L321.468 527L0 0.00195312H233.228L438.329 336.235ZM555.192 526.998L876.66 1054L643.434 1054L438.33 717.761L554.695 527L438.329 336.235L643.434 0H876.66L555.192 526.998ZM485.565 527L403.766 661.098L356.281 583.255L371.851 557.733L390.598 527L371.851 496.267L356.28 470.742L403.765 392.899L485.565 527Z" fill="#4338CA"/>
</svg>
